<svg width="60" height="44" viewBox="0 0 60 44" fill="none" xmlns="http://www.w3.org/2000/svg">
<g clip-path="url(#clip0_240_5845)">
<path d="M54.9645 16.8295C54.3916 16.8295 53.8684 16.6899 53.3949 16.4105C52.9214 16.1264 52.5426 15.7476 52.2585 15.2741C51.9792 14.8007 51.8395 14.2775 51.8395 13.7045C51.8395 13.1269 51.9792 12.6037 52.2585 12.1349C52.5426 11.6615 52.9214 11.285 53.3949 11.0057C53.8684 10.7216 54.3916 10.5795 54.9645 10.5795C55.5421 10.5795 56.0653 10.7216 56.5341 11.0057C57.0076 11.285 57.384 11.6615 57.6634 12.1349C57.9474 12.6037 58.0895 13.1269 58.0895 13.7045C58.0895 14.2775 57.9474 14.8007 57.6634 15.2741C57.384 15.7476 57.0076 16.1264 56.5341 16.4105C56.0653 16.6899 55.5421 16.8295 54.9645 16.8295Z" fill="#3A4252"/>
<path d="M0.434659 29.5V14.9545H3.0696V21.1122H9.80966V14.9545H12.4517V29.5H9.80966V23.321H3.0696V29.5H0.434659ZM15.3175 29.5V14.9545H17.9524V27.2912H24.3587V29.5H15.3175ZM27.0877 14.9545L30.8732 26.4034H31.0224L34.8008 14.9545H37.6985L32.5707 29.5H29.3178L24.1971 14.9545H27.0877ZM51.5675 14.9545V29.5H49.2237L42.37 19.5923H42.2493V29.5H39.6143V14.9545H41.9723L48.8189 24.8693H48.9467V14.9545H51.5675Z" fill="#3A4252"/>
</g>
<defs>
<clipPath id="clip0_240_5845">
<rect width="60" height="43" fill="white" transform="translate(0 0.5)"/>
</clipPath>
</defs>
</svg>
